<svg width="285" height="270" viewBox="0 0 285 270" fill="none" xmlns="http://www.w3.org/2000/svg">
<g clip-path="url(#clip0_11005_3038)">
<path d="M105.394 268.995C100.947 268.995 97.3235 265.388 97.5273 260.946C99.0751 227.22 110.321 194.691 129.887 167.651C149.286 140.841 175.892 120.771 206.218 109.933C210.645 108.351 215.379 111.005 216.613 115.541V115.541C217.809 119.935 215.266 124.454 210.984 126.001C183.877 135.792 160.098 153.789 142.734 177.785C125.281 201.906 115.184 230.88 113.65 260.947C113.424 265.387 109.84 268.995 105.394 268.995V268.995Z" fill="black" fill-opacity="0.8" style="fill:black;fill-opacity:0.8;"/>
<path d="M73.8332 268.996C69.0309 268.996 65.1192 265.1 65.3174 260.302C66.7546 225.505 76.7999 191.635 94.5382 162.021C112.118 132.673 136.604 108.587 165.597 92.0203C170.017 89.4945 175.576 91.4253 177.727 96.0395V96.0395C179.778 100.437 177.96 105.648 173.75 108.061C147.452 123.133 125.24 145.008 109.283 171.649C93.2737 198.375 84.1505 228.912 82.7256 260.303C82.5078 265.1 78.6354 268.995 73.8332 268.996V268.996Z" fill="black" fill-opacity="0.8" style="fill:black;fill-opacity:0.8;"/>
<path d="M41.9506 268.994C36.9705 268.994 32.9161 264.955 33.0987 259.978C34.8984 210.94 51.343 163.628 80.239 124.733C108.947 86.0915 148.418 57.8123 193.101 43.7024C198.118 42.118 203.335 45.2167 204.592 50.3261V50.3261C205.812 55.2874 202.832 60.2918 197.963 61.8394C157.002 74.8585 120.824 100.827 94.4891 136.274C68.0463 171.867 52.9371 215.121 51.1476 259.979C50.9491 264.955 46.9307 268.994 41.9506 268.994V268.994Z" fill="black" fill-opacity="0.8" style="fill:black;fill-opacity:0.8;"/>
<path d="M9.74603 268.996C4.76593 268.996 0.713636 264.957 0.873506 259.98C1.95287 226.374 9.05865 193.249 21.8489 162.332C35.7817 128.653 56.1655 98.3057 81.7468 73.156C107.328 48.0063 137.566 28.5858 170.602 16.0887C200.7 4.70272 232.541 -0.717011 264.491 0.0763998C269.669 0.204992 273.605 4.66439 273.307 9.8356V9.8356C273.006 15.0448 268.526 18.9957 263.309 18.8833C233.849 18.2484 204.5 23.2927 176.745 33.7922C146.022 45.4145 117.901 63.4756 94.11 86.8648C70.3194 110.254 51.3626 138.477 38.4051 169.798C26.5901 198.358 19.9909 228.943 18.9189 259.98C18.747 264.957 14.7261 268.996 9.74603 268.996V268.996Z" fill="black" fill-opacity="0.8" style="fill:black;fill-opacity:0.8;"/>
</g>
<defs>
<clipPath id="clip0_11005_3038">
<rect width="284.271" height="270" fill="white" style="fill:white;fill-opacity:1;"/>
</clipPath>
</defs>
</svg>
